solid Emas
  facet normal 0.000000e+00 -1.000000e+00 0.000000e+00
    outer loop
      vertex -1.868392e+00 -4.472464e+00 1.966133e+00
      vertex 1.842582e+00 -4.472464e+00 1.740844e+00
      vertex 1.842582e+00 -4.472464e+00 1.966133e+00
    endloop
  endfacet
  facet normal 1.000000e+00 0.000000e+00 0.000000e+00
    outer loop
      vertex 1.842582e+00 -4.472464e+00 1.966133e+00
      vertex 1.842582e+00 -1.720052e+00 1.740844e+00
      vertex 1.842582e+00 -1.720052e+00 1.966133e+00
    endloop
  endfacet
  facet normal 0.000000e+00 1.000000e+00 0.000000e+00
    outer loop
      vertex 1.842582e+00 -1.720052e+00 1.966133e+00
      vertex -1.868392e+00 -1.720052e+00 1.740844e+00
      vertex -1.868392e+00 -1.720052e+00 1.966133e+00
    endloop
  endfacet
  facet normal -1.000000e+00 0.000000e+00 0.000000e+00
    outer loop
      vertex -1.868392e+00 -1.720052e+00 1.966133e+00
      vertex -1.868392e+00 -4.472464e+00 1.740844e+00
      vertex -1.868392e+00 -4.472464e+00 1.966133e+00
    endloop
  endfacet
  facet normal 0.000000e+00 0.000000e+00 -1.000000e+00
    outer loop
      vertex -8.970348e-01 -3.347284e+00 1.740844e+00
      vertex 1.842582e+00 -4.472464e+00 1.740844e+00
      vertex -8.970348e-01 -3.937835e+00 1.740844e+00
    endloop
  endfacet
  facet normal 0.000000e+00 0.000000e+00 1.000000e+00
    outer loop
      vertex -1.822004e+00 -4.403653e+00 1.966133e+00
      vertex 1.842582e+00 -4.472464e+00 1.966133e+00
      vertex 1.796195e+00 -4.403653e+00 1.966133e+00
    endloop
  endfacet
  facet normal 0.000000e+00 1.000000e+00 0.000000e+00
    outer loop
      vertex 1.796195e+00 -4.403653e+00 1.966133e+00
      vertex -1.822004e+00 -4.403653e+00 1.752109e+00
      vertex -1.822004e+00 -4.403653e+00 1.966133e+00
    endloop
  endfacet
  facet normal -1.000000e+00 0.000000e+00 0.000000e+00
    outer loop
      vertex 1.796195e+00 -1.788862e+00 1.966133e+00
      vertex 1.796195e+00 -4.403653e+00 1.752109e+00
      vertex 1.796195e+00 -4.403653e+00 1.966133e+00
    endloop
  endfacet
  facet normal 0.000000e+00 -1.000000e+00 0.000000e+00
    outer loop
      vertex -1.822004e+00 -1.788862e+00 1.966133e+00
      vertex 1.796195e+00 -1.788862e+00 1.752109e+00
      vertex 1.796195e+00 -1.788862e+00 1.966133e+00
    endloop
  endfacet
  facet normal 1.000000e+00 0.000000e+00 0.000000e+00
    outer loop
      vertex -1.822004e+00 -4.403653e+00 1.966133e+00
      vertex -1.822004e+00 -1.788862e+00 1.752109e+00
      vertex -1.822004e+00 -1.788862e+00 1.966133e+00
    endloop
  endfacet
  facet normal 0.000000e+00 0.000000e+00 1.000000e+00
    outer loop
      vertex -8.970348e-01 -3.347284e+00 1.752109e+00
      vertex 1.796195e+00 -4.403653e+00 1.752109e+00
      vertex 1.796195e+00 -1.788862e+00 1.752109e+00
    endloop
  endfacet
  facet normal 0.000000e+00 1.000000e+00 0.000000e+00
    outer loop
      vertex -8.970348e-01 -3.937835e+00 1.752109e+00
      vertex -1.487586e+00 -3.937835e+00 1.740844e+00
      vertex -1.487586e+00 -3.937835e+00 1.752109e+00
    endloop
  endfacet
  facet normal -1.000000e+00 0.000000e+00 0.000000e+00
    outer loop
      vertex -8.970348e-01 -3.347284e+00 1.752109e+00
      vertex -8.970348e-01 -3.937835e+00 1.740844e+00
      vertex -8.970348e-01 -3.937835e+00 1.752109e+00
    endloop
  endfacet
  facet normal 0.000000e+00 -1.000000e+00 0.000000e+00
    outer loop
      vertex -1.487586e+00 -3.347284e+00 1.752109e+00
      vertex -8.970348e-01 -3.347284e+00 1.740844e+00
      vertex -8.970348e-01 -3.347284e+00 1.752109e+00
    endloop
  endfacet
  facet normal 1.000000e+00 0.000000e+00 0.000000e+00
    outer loop
      vertex -1.487586e+00 -3.937835e+00 1.740844e+00
      vertex -1.487586e+00 -3.347284e+00 1.752109e+00
      vertex -1.487586e+00 -3.937835e+00 1.752109e+00
    endloop
  endfacet
  facet normal 0.000000e+00 -1.000000e+00 0.000000e+00
    outer loop
      vertex 1.842582e+00 -4.472464e+00 1.740844e+00
      vertex -1.868392e+00 -4.472464e+00 1.966133e+00
      vertex -1.868392e+00 -4.472464e+00 1.740844e+00
    endloop
  endfacet
  facet normal 1.000000e+00 -0.000000e+00 0.000000e+00
    outer loop
      vertex 1.842582e+00 -1.720052e+00 1.740844e+00
      vertex 1.842582e+00 -4.472464e+00 1.966133e+00
      vertex 1.842582e+00 -4.472464e+00 1.740844e+00
    endloop
  endfacet
  facet normal 0.000000e+00 1.000000e+00 0.000000e+00
    outer loop
      vertex -1.868392e+00 -1.720052e+00 1.740844e+00
      vertex 1.842582e+00 -1.720052e+00 1.966133e+00
      vertex 1.842582e+00 -1.720052e+00 1.740844e+00
    endloop
  endfacet
  facet normal -1.000000e+00 -0.000000e+00 0.000000e+00
    outer loop
      vertex -1.868392e+00 -4.472464e+00 1.740844e+00
      vertex -1.868392e+00 -1.720052e+00 1.966133e+00
      vertex -1.868392e+00 -1.720052e+00 1.740844e+00
    endloop
  endfacet
  facet normal 0.000000e+00 0.000000e+00 -1.000000e+00
    outer loop
      vertex -1.487586e+00 -3.937835e+00 1.740844e+00
      vertex 1.842582e+00 -4.472464e+00 1.740844e+00
      vertex -1.868392e+00 -4.472464e+00 1.740844e+00
    endloop
  endfacet
  facet normal 0.000000e+00 0.000000e+00 -1.000000e+00
    outer loop
      vertex -8.970348e-01 -3.937835e+00 1.740844e+00
      vertex 1.842582e+00 -4.472464e+00 1.740844e+00
      vertex -1.487586e+00 -3.937835e+00 1.740844e+00
    endloop
  endfacet
  facet normal 0.000000e+00 0.000000e+00 -1.000000e+00
    outer loop
      vertex -1.868392e+00 -1.720052e+00 1.740844e+00
      vertex -1.487586e+00 -3.937835e+00 1.740844e+00
      vertex -1.868392e+00 -4.472464e+00 1.740844e+00
    endloop
  endfacet
  facet normal 0.000000e+00 0.000000e+00 -1.000000e+00
    outer loop
      vertex -1.868392e+00 -1.720052e+00 1.740844e+00
      vertex -1.487586e+00 -3.347284e+00 1.740844e+00
      vertex -1.487586e+00 -3.937835e+00 1.740844e+00
    endloop
  endfacet
  facet normal 0.000000e+00 0.000000e+00 -1.000000e+00
    outer loop
      vertex 1.842582e+00 -1.720052e+00 1.740844e+00
      vertex -1.487586e+00 -3.347284e+00 1.740844e+00
      vertex -1.868392e+00 -1.720052e+00 1.740844e+00
    endloop
  endfacet
  facet normal 0.000000e+00 0.000000e+00 -1.000000e+00
    outer loop
      vertex 1.842582e+00 -1.720052e+00 1.740844e+00
      vertex -8.970348e-01 -3.347284e+00 1.740844e+00
      vertex -1.487586e+00 -3.347284e+00 1.740844e+00
    endloop
  endfacet
  facet normal 0.000000e+00 0.000000e+00 -1.000000e+00
    outer loop
      vertex 1.842582e+00 -4.472464e+00 1.740844e+00
      vertex -8.970348e-01 -3.347284e+00 1.740844e+00
      vertex 1.842582e+00 -1.720052e+00 1.740844e+00
    endloop
  endfacet
  facet normal 0.000000e+00 0.000000e+00 1.000000e+00
    outer loop
      vertex 1.842582e+00 -1.720052e+00 1.966133e+00
      vertex 1.796195e+00 -4.403653e+00 1.966133e+00
      vertex 1.842582e+00 -4.472464e+00 1.966133e+00
    endloop
  endfacet
  facet normal 0.000000e+00 0.000000e+00 1.000000e+00
    outer loop
      vertex 1.842582e+00 -1.720052e+00 1.966133e+00
      vertex 1.796195e+00 -1.788862e+00 1.966133e+00
      vertex 1.796195e+00 -4.403653e+00 1.966133e+00
    endloop
  endfacet
  facet normal 0.000000e+00 0.000000e+00 1.000000e+00
    outer loop
      vertex -1.868392e+00 -1.720052e+00 1.966133e+00
      vertex 1.796195e+00 -1.788862e+00 1.966133e+00
      vertex 1.842582e+00 -1.720052e+00 1.966133e+00
    endloop
  endfacet
  facet normal 0.000000e+00 0.000000e+00 1.000000e+00
    outer loop
      vertex -1.868392e+00 -1.720052e+00 1.966133e+00
      vertex -1.822004e+00 -1.788862e+00 1.966133e+00
      vertex 1.796195e+00 -1.788862e+00 1.966133e+00
    endloop
  endfacet
  facet normal 0.000000e+00 0.000000e+00 1.000000e+00
    outer loop
      vertex -1.868392e+00 -4.472464e+00 1.966133e+00
      vertex -1.822004e+00 -1.788862e+00 1.966133e+00
      vertex -1.868392e+00 -1.720052e+00 1.966133e+00
    endloop
  endfacet
  facet normal 0.000000e+00 0.000000e+00 1.000000e+00
    outer loop
      vertex -1.868392e+00 -4.472464e+00 1.966133e+00
      vertex -1.822004e+00 -4.403653e+00 1.966133e+00
      vertex -1.822004e+00 -1.788862e+00 1.966133e+00
    endloop
  endfacet
  facet normal -0.000000e+00 0.000000e+00 1.000000e+00
    outer loop
      vertex 1.842582e+00 -4.472464e+00 1.966133e+00
      vertex -1.822004e+00 -4.403653e+00 1.966133e+00
      vertex -1.868392e+00 -4.472464e+00 1.966133e+00
    endloop
  endfacet
  facet normal 0.000000e+00 1.000000e+00 0.000000e+00
    outer loop
      vertex -1.822004e+00 -4.403653e+00 1.752109e+00
      vertex 1.796195e+00 -4.403653e+00 1.966133e+00
      vertex 1.796195e+00 -4.403653e+00 1.752109e+00
    endloop
  endfacet
  facet normal -1.000000e+00 -0.000000e+00 0.000000e+00
    outer loop
      vertex 1.796195e+00 -4.403653e+00 1.752109e+00
      vertex 1.796195e+00 -1.788862e+00 1.966133e+00
      vertex 1.796195e+00 -1.788862e+00 1.752109e+00
    endloop
  endfacet
  facet normal 0.000000e+00 -1.000000e+00 0.000000e+00
    outer loop
      vertex 1.796195e+00 -1.788862e+00 1.752109e+00
      vertex -1.822004e+00 -1.788862e+00 1.966133e+00
      vertex -1.822004e+00 -1.788862e+00 1.752109e+00
    endloop
  endfacet
  facet normal 1.000000e+00 -0.000000e+00 0.000000e+00
    outer loop
      vertex -1.822004e+00 -1.788862e+00 1.752109e+00
      vertex -1.822004e+00 -4.403653e+00 1.966133e+00
      vertex -1.822004e+00 -4.403653e+00 1.752109e+00
    endloop
  endfacet
  facet normal -0.000000e+00 0.000000e+00 1.000000e+00
    outer loop
      vertex 1.796195e+00 -4.403653e+00 1.752109e+00
      vertex -1.487586e+00 -3.937835e+00 1.752109e+00
      vertex -1.822004e+00 -4.403653e+00 1.752109e+00
    endloop
  endfacet
  facet normal 0.000000e+00 0.000000e+00 1.000000e+00
    outer loop
      vertex 1.796195e+00 -4.403653e+00 1.752109e+00
      vertex -8.970348e-01 -3.937835e+00 1.752109e+00
      vertex -1.487586e+00 -3.937835e+00 1.752109e+00
    endloop
  endfacet
  facet normal -0.000000e+00 0.000000e+00 1.000000e+00
    outer loop
      vertex -1.487586e+00 -3.937835e+00 1.752109e+00
      vertex -1.822004e+00 -1.788862e+00 1.752109e+00
      vertex -1.822004e+00 -4.403653e+00 1.752109e+00
    endloop
  endfacet
  facet normal -0.000000e+00 0.000000e+00 1.000000e+00
    outer loop
      vertex -1.487586e+00 -3.347284e+00 1.752109e+00
      vertex -1.822004e+00 -1.788862e+00 1.752109e+00
      vertex -1.487586e+00 -3.937835e+00 1.752109e+00
    endloop
  endfacet
  facet normal 0.000000e+00 0.000000e+00 1.000000e+00
    outer loop
      vertex -1.487586e+00 -3.347284e+00 1.752109e+00
      vertex 1.796195e+00 -1.788862e+00 1.752109e+00
      vertex -1.822004e+00 -1.788862e+00 1.752109e+00
    endloop
  endfacet
  facet normal -0.000000e+00 0.000000e+00 1.000000e+00
    outer loop
      vertex -8.970348e-01 -3.347284e+00 1.752109e+00
      vertex 1.796195e+00 -1.788862e+00 1.752109e+00
      vertex -1.487586e+00 -3.347284e+00 1.752109e+00
    endloop
  endfacet
  facet normal 0.000000e+00 0.000000e+00 1.000000e+00
    outer loop
      vertex 1.796195e+00 -4.403653e+00 1.752109e+00
      vertex -8.970348e-01 -3.347284e+00 1.752109e+00
      vertex -8.970348e-01 -3.937835e+00 1.752109e+00
    endloop
  endfacet
  facet normal 0.000000e+00 1.000000e+00 0.000000e+00
    outer loop
      vertex -1.487586e+00 -3.937835e+00 1.740844e+00
      vertex -8.970348e-01 -3.937835e+00 1.752109e+00
      vertex -8.970348e-01 -3.937835e+00 1.740844e+00
    endloop
  endfacet
  facet normal -1.000000e+00 -0.000000e+00 0.000000e+00
    outer loop
      vertex -8.970348e-01 -3.937835e+00 1.740844e+00
      vertex -8.970348e-01 -3.347284e+00 1.752109e+00
      vertex -8.970348e-01 -3.347284e+00 1.740844e+00
    endloop
  endfacet
  facet normal 0.000000e+00 -1.000000e+00 0.000000e+00
    outer loop
      vertex -8.970348e-01 -3.347284e+00 1.740844e+00
      vertex -1.487586e+00 -3.347284e+00 1.752109e+00
      vertex -1.487586e+00 -3.347284e+00 1.740844e+00
    endloop
  endfacet
  facet normal 1.000000e+00 0.000000e+00 0.000000e+00
    outer loop
      vertex -1.487586e+00 -3.347284e+00 1.752109e+00
      vertex -1.487586e+00 -3.937835e+00 1.740844e+00
      vertex -1.487586e+00 -3.347284e+00 1.740844e+00
    endloop
  endfacet
endsolid Emas
