solid Object01
  facet normal -1.224649e-16 2.599276e-22 -1.000000e+00
    outer loop
      vertex -1.032617e+00 -3.466627e-01 1.293016e-16
      vertex -1.096610e+00 -4.003593e-01 1.371385e-16
      vertex -1.175109e+00 -4.289306e-01 1.467518e-16
    endloop
  endfacet
  facet normal -1.224645e-16 7.364609e-22 -1.000000e+00
    outer loop
      vertex -1.175109e+00 -4.289306e-01 1.467518e-16
      vertex -1.258646e+00 -4.289305e-01 1.569822e-16
      vertex -1.337145e+00 -4.003592e-01 1.665955e-16
    endloop
  endfacet
  facet normal -1.224649e-16 -1.949462e-22 -1.000000e+00
    outer loop
      vertex -1.337145e+00 -4.003592e-01 1.665955e-16
      vertex -1.401138e+00 -3.466626e-01 1.744324e-16
      vertex -1.442907e+00 -2.743174e-01 1.795476e-16
    endloop
  endfacet
  facet normal -1.224647e-16 -2.376742e-23 -1.000000e+00
    outer loop
      vertex -1.175109e+00 -4.289306e-01 1.467518e-16
      vertex -1.337145e+00 -4.003592e-01 1.665955e-16
      vertex -1.442907e+00 -2.743174e-01 1.795476e-16
    endloop
  endfacet
  facet normal -1.224653e-16 -0.000000e+00 -1.000000e+00
    outer loop
      vertex -1.442907e+00 -2.743174e-01 1.795476e-16
      vertex -1.457413e+00 -1.920495e-01 1.813241e-16
      vertex -1.442907e+00 -1.097816e-01 1.795476e-16
    endloop
  endfacet
  facet normal -1.224648e-16 1.732848e-22 -1.000000e+00
    outer loop
      vertex -1.442907e+00 -1.097816e-01 1.795476e-16
      vertex -1.401138e+00 -3.743638e-02 1.744324e-16
      vertex -1.337145e+00 1.626018e-02 1.665955e-16
    endloop
  endfacet
  facet normal -1.224646e-16 -0.000000e+00 -1.000000e+00
    outer loop
      vertex -1.442907e+00 -2.743174e-01 1.795476e-16
      vertex -1.442907e+00 -1.097816e-01 1.795476e-16
      vertex -1.337145e+00 1.626018e-02 1.665955e-16
    endloop
  endfacet
  facet normal -1.224645e-16 -7.364602e-22 -1.000000e+00
    outer loop
      vertex -1.337145e+00 1.626018e-02 1.665955e-16
      vertex -1.258646e+00 4.483153e-02 1.569822e-16
      vertex -1.175109e+00 4.483154e-02 1.467518e-16
    endloop
  endfacet
  facet normal -1.224649e-16 -2.166064e-22 -1.000000e+00
    outer loop
      vertex -1.175109e+00 4.483154e-02 1.467518e-16
      vertex -1.096610e+00 1.626019e-02 1.371384e-16
      vertex -1.032617e+00 -3.743638e-02 1.293016e-16
    endloop
  endfacet
  facet normal -1.224647e-16 1.188370e-22 -1.000000e+00
    outer loop
      vertex -1.337145e+00 1.626018e-02 1.665955e-16
      vertex -1.175109e+00 4.483154e-02 1.467518e-16
      vertex -1.032617e+00 -3.743638e-02 1.293016e-16
    endloop
  endfacet
  facet normal -1.224647e-16 2.635224e-23 -1.000000e+00
    outer loop
      vertex -1.442907e+00 -2.743174e-01 1.795476e-16
      vertex -1.337145e+00 1.626018e-02 1.665955e-16
      vertex -1.032617e+00 -3.743638e-02 1.293016e-16
    endloop
  endfacet
  facet normal -1.224647e-16 -2.607912e-23 -1.000000e+00
    outer loop
      vertex -1.175109e+00 -4.289306e-01 1.467518e-16
      vertex -1.442907e+00 -2.743174e-01 1.795476e-16
      vertex -1.032617e+00 -3.743638e-02 1.293016e-16
    endloop
  endfacet
  facet normal -1.224644e-16 7.581199e-23 -1.000000e+00
    outer loop
      vertex -1.032617e+00 -3.743638e-02 1.293016e-16
      vertex -9.908482e-01 -1.097816e-01 1.241864e-16
      vertex -9.763421e-01 -1.920495e-01 1.224099e-16
    endloop
  endfacet
  facet normal -1.224647e-16 -2.346619e-23 -1.000000e+00
    outer loop
      vertex -1.175109e+00 -4.289306e-01 1.467518e-16
      vertex -1.032617e+00 -3.743638e-02 1.293016e-16
      vertex -9.763421e-01 -1.920495e-01 1.224099e-16
    endloop
  endfacet
  facet normal -1.224648e-16 8.318592e-23 -1.000000e+00
    outer loop
      vertex -1.032617e+00 -3.466627e-01 1.293016e-16
      vertex -1.175109e+00 -4.289306e-01 1.467518e-16
      vertex -9.763421e-01 -1.920495e-01 1.224099e-16
    endloop
  endfacet
  facet normal -1.224644e-16 -4.602872e-23 -1.000000e+00
    outer loop
      vertex -9.908483e-01 -2.743176e-01 1.241864e-16
      vertex -1.032617e+00 -3.466627e-01 1.293016e-16
      vertex -9.763421e-01 -1.920495e-01 1.224099e-16
    endloop
  endfacet
  facet normal 9.379592e-01 1.653874e-01 -3.047614e-01
    outer loop
      vertex -9.763421e-01 -1.920495e-01 1.224099e-16
      vertex -9.908482e-01 -1.097816e-01 1.241864e-16
      vertex -7.971802e-01 -1.097816e-01 5.960488e-01
    endloop
  endfacet
  facet normal 9.379593e-01 1.653872e-01 -3.047614e-01
    outer loop
      vertex -7.971802e-01 -1.097816e-01 5.960488e-01
      vertex -7.854446e-01 -1.920495e-01 5.875224e-01
      vertex -9.763421e-01 -1.920495e-01 1.224099e-16
    endloop
  endfacet
  facet normal 8.336499e-01 4.813083e-01 -2.708693e-01
    outer loop
      vertex -9.908482e-01 -1.097816e-01 1.241864e-16
      vertex -1.032617e+00 -3.743638e-02 1.293016e-16
      vertex -8.309716e-01 -3.743638e-02 6.205997e-01
    endloop
  endfacet
  facet normal 8.336501e-01 4.813079e-01 -2.708693e-01
    outer loop
      vertex -8.309716e-01 -3.743638e-02 6.205997e-01
      vertex -7.971802e-01 -1.097816e-01 5.960488e-01
      vertex -9.908482e-01 -1.097816e-01 1.241864e-16
    endloop
  endfacet
  facet normal 6.292109e-01 7.498645e-01 -2.044430e-01
    outer loop
      vertex -1.032617e+00 -3.743638e-02 1.293016e-16
      vertex -1.096610e+00 1.626019e-02 1.371384e-16
      vertex -8.827431e-01 1.626019e-02 6.582140e-01
    endloop
  endfacet
  facet normal 6.292107e-01 7.498646e-01 -2.044430e-01
    outer loop
      vertex -8.827431e-01 1.626019e-02 6.582140e-01
      vertex -8.309716e-01 -3.743638e-02 6.205997e-01
      vertex -1.032617e+00 -3.743638e-02 1.293016e-16
    endloop
  endfacet
  facet normal 3.399278e-01 9.339433e-01 -1.104492e-01
    outer loop
      vertex -1.096610e+00 1.626019e-02 1.371384e-16
      vertex -1.175109e+00 4.483154e-02 1.467518e-16
      vertex -9.462503e-01 4.483154e-02 7.043546e-01
    endloop
  endfacet
  facet normal 3.399276e-01 9.339433e-01 -1.104492e-01
    outer loop
      vertex -9.462503e-01 4.483154e-02 7.043546e-01
      vertex -8.827431e-01 1.626019e-02 6.582140e-01
      vertex -1.096610e+00 1.626019e-02 1.371384e-16
    endloop
  endfacet
  facet normal -1.783778e-07 1.000000e+00 5.795845e-08
    outer loop
      vertex -1.175109e+00 4.483154e-02 1.467518e-16
      vertex -1.258646e+00 4.483153e-02 1.569822e-16
      vertex -1.013833e+00 4.483153e-02 7.534564e-01
    endloop
  endfacet
  facet normal -1.783779e-07 1.000000e+00 5.795847e-08
    outer loop
      vertex -1.013833e+00 4.483153e-02 7.534564e-01
      vertex -9.462503e-01 4.483154e-02 7.043546e-01
      vertex -1.175109e+00 4.483154e-02 1.467518e-16
    endloop
  endfacet
  facet normal -3.399279e-01 9.339433e-01 1.104492e-01
    outer loop
      vertex -1.258646e+00 4.483153e-02 1.569822e-16
      vertex -1.337145e+00 1.626018e-02 1.665955e-16
      vertex -1.077340e+00 1.626018e-02 7.995971e-01
    endloop
  endfacet
  facet normal -3.399278e-01 9.339433e-01 1.104492e-01
    outer loop
      vertex -1.077340e+00 1.626018e-02 7.995971e-01
      vertex -1.013833e+00 4.483153e-02 7.534564e-01
      vertex -1.258646e+00 4.483153e-02 1.569822e-16
    endloop
  endfacet
  facet normal -6.292108e-01 7.498646e-01 2.044430e-01
    outer loop
      vertex -1.337145e+00 1.626018e-02 1.665955e-16
      vertex -1.401138e+00 -3.743638e-02 1.744324e-16
      vertex -1.129112e+00 -3.743638e-02 8.372113e-01
    endloop
  endfacet
  facet normal -6.292107e-01 7.498646e-01 2.044429e-01
    outer loop
      vertex -1.129112e+00 -3.743638e-02 8.372113e-01
      vertex -1.077340e+00 1.626018e-02 7.995971e-01
      vertex -1.337145e+00 1.626018e-02 1.665955e-16
    endloop
  endfacet
  facet normal -8.336499e-01 4.813084e-01 2.708693e-01
    outer loop
      vertex -1.401138e+00 -3.743638e-02 1.744324e-16
      vertex -1.442907e+00 -1.097816e-01 1.795476e-16
      vertex -1.162903e+00 -1.097816e-01 8.617622e-01
    endloop
  endfacet
  facet normal -8.336501e-01 4.813079e-01 2.708693e-01
    outer loop
      vertex -1.162903e+00 -1.097816e-01 8.617622e-01
      vertex -1.129112e+00 -3.743638e-02 8.372113e-01
      vertex -1.401138e+00 -3.743638e-02 1.744324e-16
    endloop
  endfacet
  facet normal -9.379593e-01 1.653868e-01 3.047614e-01
    outer loop
      vertex -1.442907e+00 -1.097816e-01 1.795476e-16
      vertex -1.457413e+00 -1.920495e-01 1.813241e-16
      vertex -1.174639e+00 -1.920495e-01 8.702886e-01
    endloop
  endfacet
  facet normal -9.379591e-01 1.653879e-01 3.047614e-01
    outer loop
      vertex -1.174639e+00 -1.920495e-01 8.702886e-01
      vertex -1.162903e+00 -1.097816e-01 8.617622e-01
      vertex -1.442907e+00 -1.097816e-01 1.795476e-16
    endloop
  endfacet
  facet normal -9.379593e-01 -1.653867e-01 3.047615e-01
    outer loop
      vertex -1.457413e+00 -1.920495e-01 1.813241e-16
      vertex -1.442907e+00 -2.743174e-01 1.795476e-16
      vertex -1.162903e+00 -2.743174e-01 8.617622e-01
    endloop
  endfacet
  facet normal -9.379591e-01 -1.653879e-01 3.047613e-01
    outer loop
      vertex -1.162903e+00 -2.743174e-01 8.617622e-01
      vertex -1.174639e+00 -1.920495e-01 8.702886e-01
      vertex -1.457413e+00 -1.920495e-01 1.813241e-16
    endloop
  endfacet
  facet normal -8.336499e-01 -4.813084e-01 2.708693e-01
    outer loop
      vertex -1.442907e+00 -2.743174e-01 1.795476e-16
      vertex -1.401138e+00 -3.466626e-01 1.744324e-16
      vertex -1.129112e+00 -3.466626e-01 8.372113e-01
    endloop
  endfacet
  facet normal -8.336501e-01 -4.813079e-01 2.708694e-01
    outer loop
      vertex -1.129112e+00 -3.466626e-01 8.372113e-01
      vertex -1.162903e+00 -2.743174e-01 8.617622e-01
      vertex -1.442907e+00 -2.743174e-01 1.795476e-16
    endloop
  endfacet
  facet normal -6.292115e-01 -7.498639e-01 2.044432e-01
    outer loop
      vertex -1.401138e+00 -3.466626e-01 1.744324e-16
      vertex -1.337145e+00 -4.003592e-01 1.665955e-16
      vertex -1.077340e+00 -4.003592e-01 7.995971e-01
    endloop
  endfacet
  facet normal -6.292115e-01 -7.498639e-01 2.044432e-01
    outer loop
      vertex -1.077340e+00 -4.003592e-01 7.995971e-01
      vertex -1.129112e+00 -3.466626e-01 8.372113e-01
      vertex -1.401138e+00 -3.466626e-01 1.744324e-16
    endloop
  endfacet
  facet normal -3.399280e-01 -9.339432e-01 1.104493e-01
    outer loop
      vertex -1.337145e+00 -4.003592e-01 1.665955e-16
      vertex -1.258646e+00 -4.289305e-01 1.569822e-16
      vertex -1.013833e+00 -4.289305e-01 7.534565e-01
    endloop
  endfacet
  facet normal -3.399280e-01 -9.339432e-01 1.104493e-01
    outer loop
      vertex -1.013833e+00 -4.289305e-01 7.534565e-01
      vertex -1.077340e+00 -4.003592e-01 7.995971e-01
      vertex -1.337145e+00 -4.003592e-01 1.665955e-16
    endloop
  endfacet
  facet normal -7.135110e-07 -1.000000e+00 2.318338e-07
    outer loop
      vertex -1.258646e+00 -4.289305e-01 1.569822e-16
      vertex -1.175109e+00 -4.289306e-01 1.467518e-16
      vertex -9.462503e-01 -4.289306e-01 7.043546e-01
    endloop
  endfacet
  facet normal -7.135109e-07 -1.000000e+00 2.318338e-07
    outer loop
      vertex -9.462503e-01 -4.289306e-01 7.043546e-01
      vertex -1.013833e+00 -4.289305e-01 7.534565e-01
      vertex -1.258646e+00 -4.289305e-01 1.569822e-16
    endloop
  endfacet
  facet normal 3.399274e-01 -9.339435e-01 -1.104491e-01
    outer loop
      vertex -1.175109e+00 -4.289306e-01 1.467518e-16
      vertex -1.096610e+00 -4.003593e-01 1.371385e-16
      vertex -8.827432e-01 -4.003593e-01 6.582140e-01
    endloop
  endfacet
  facet normal 3.399274e-01 -9.339435e-01 -1.104491e-01
    outer loop
      vertex -8.827432e-01 -4.003593e-01 6.582140e-01
      vertex -9.462503e-01 -4.289306e-01 7.043546e-01
      vertex -1.175109e+00 -4.289306e-01 1.467518e-16
    endloop
  endfacet
  facet normal 6.292107e-01 -7.498646e-01 -2.044430e-01
    outer loop
      vertex -1.096610e+00 -4.003593e-01 1.371385e-16
      vertex -1.032617e+00 -3.466627e-01 1.293016e-16
      vertex -8.309717e-01 -3.466627e-01 6.205998e-01
    endloop
  endfacet
  facet normal 6.292105e-01 -7.498648e-01 -2.044429e-01
    outer loop
      vertex -8.309717e-01 -3.466627e-01 6.205998e-01
      vertex -8.827432e-01 -4.003593e-01 6.582140e-01
      vertex -1.096610e+00 -4.003593e-01 1.371385e-16
    endloop
  endfacet
  facet normal 8.336497e-01 -4.813087e-01 -2.708693e-01
    outer loop
      vertex -1.032617e+00 -3.466627e-01 1.293016e-16
      vertex -9.908483e-01 -2.743176e-01 1.241864e-16
      vertex -7.971802e-01 -2.743176e-01 5.960489e-01
    endloop
  endfacet
  facet normal 8.336496e-01 -4.813087e-01 -2.708693e-01
    outer loop
      vertex -7.971802e-01 -2.743176e-01 5.960489e-01
      vertex -8.309717e-01 -3.466627e-01 6.205998e-01
      vertex -1.032617e+00 -3.466627e-01 1.293016e-16
    endloop
  endfacet
  facet normal 9.379591e-01 -1.653884e-01 -3.047614e-01
    outer loop
      vertex -9.908483e-01 -2.743176e-01 1.241864e-16
      vertex -9.763421e-01 -1.920495e-01 1.224099e-16
      vertex -7.854446e-01 -1.920495e-01 5.875224e-01
    endloop
  endfacet
  facet normal 9.379591e-01 -1.653878e-01 -3.047614e-01
    outer loop
      vertex -7.854446e-01 -1.920495e-01 5.875224e-01
      vertex -7.971802e-01 -2.743176e-01 5.960489e-01
      vertex -9.908483e-01 -2.743176e-01 1.241864e-16
    endloop
  endfacet
  facet normal 5.796906e-01 1.653873e-01 -7.978758e-01
    outer loop
      vertex -7.854446e-01 -1.920495e-01 5.875224e-01
      vertex -7.971802e-01 -1.097816e-01 5.960488e-01
      vertex -2.901508e-01 -1.097816e-01 9.644272e-01
    endloop
  endfacet
  facet normal 5.796906e-01 1.653877e-01 -7.978758e-01
    outer loop
      vertex -2.901508e-01 -1.097816e-01 9.644272e-01
      vertex -2.856681e-01 -1.920495e-01 9.506311e-01
      vertex -7.854446e-01 -1.920495e-01 5.875224e-01
    endloop
  endfacet
  facet normal 5.152241e-01 4.813080e-01 -7.091451e-01
    outer loop
      vertex -7.971802e-01 -1.097816e-01 5.960488e-01
      vertex -8.309716e-01 -3.743638e-02 6.205997e-01
      vertex -3.030579e-01 -3.743638e-02 1.004151e+00
    endloop
  endfacet
  facet normal 5.152240e-01 4.813080e-01 -7.091451e-01
    outer loop
      vertex -3.030579e-01 -3.743638e-02 1.004151e+00
      vertex -2.901508e-01 -1.097816e-01 9.644272e-01
      vertex -7.971802e-01 -1.097816e-01 5.960488e-01
    endloop
  endfacet
  facet normal 3.888735e-01 7.498646e-01 -5.352387e-01
    outer loop
      vertex -8.309716e-01 -3.743638e-02 6.205997e-01
      vertex -8.827431e-01 1.626019e-02 6.582140e-01
      vertex -3.228329e-01 1.626021e-02 1.065012e+00
    endloop
  endfacet
  facet normal 3.888739e-01 7.498642e-01 -5.352390e-01
    outer loop
      vertex -3.228329e-01 1.626021e-02 1.065012e+00
      vertex -3.030579e-01 -3.743638e-02 1.004151e+00
      vertex -8.309716e-01 -3.743638e-02 6.205997e-01
    endloop
  endfacet
  facet normal 2.100869e-01 9.339433e-01 -2.891598e-01
    outer loop
      vertex -8.827431e-01 1.626019e-02 6.582140e-01
      vertex -9.462503e-01 4.483154e-02 7.043546e-01
      vertex -3.470905e-01 4.483156e-02 1.139670e+00
    endloop
  endfacet
  facet normal 2.100865e-01 9.339435e-01 -2.891594e-01
    outer loop
      vertex -3.470905e-01 4.483156e-02 1.139670e+00
      vertex -3.228329e-01 1.626021e-02 1.065012e+00
      vertex -8.827431e-01 1.626019e-02 6.582140e-01
    endloop
  endfacet
  facet normal -1.218683e-07 1.000000e+00 1.357373e-07
    outer loop
      vertex -9.462503e-01 4.483154e-02 7.043546e-01
      vertex -1.013833e+00 4.483153e-02 7.534564e-01
      vertex -3.729048e-01 4.483154e-02 1.219118e+00
    endloop
  endfacet
  facet normal -1.303639e-07 1.000000e+00 1.451998e-07
    outer loop
      vertex -3.729048e-01 4.483154e-02 1.219118e+00
      vertex -3.470905e-01 4.483156e-02 1.139670e+00
      vertex -9.462503e-01 4.483154e-02 7.043546e-01
    endloop
  endfacet
  facet normal -2.100868e-01 9.339433e-01 2.891597e-01
    outer loop
      vertex -1.013833e+00 4.483153e-02 7.534564e-01
      vertex -1.077340e+00 1.626018e-02 7.995971e-01
      vertex -3.971624e-01 1.626019e-02 1.293775e+00
    endloop
  endfacet
  facet normal -2.100869e-01 9.339433e-01 2.891598e-01
    outer loop
      vertex -3.971624e-01 1.626019e-02 1.293775e+00
      vertex -3.729048e-01 4.483154e-02 1.219118e+00
      vertex -1.013833e+00 4.483153e-02 7.534564e-01
    endloop
  endfacet
  facet normal -3.888736e-01 7.498645e-01 5.352388e-01
    outer loop
      vertex -1.077340e+00 1.626018e-02 7.995971e-01
      vertex -1.129112e+00 -3.743638e-02 8.372113e-01
      vertex -4.169373e-01 -3.743638e-02 1.354636e+00
    endloop
  endfacet
  facet normal -3.888740e-01 7.498641e-01 5.352391e-01
    outer loop
      vertex -4.169373e-01 -3.743638e-02 1.354636e+00
      vertex -3.971624e-01 1.626019e-02 1.293775e+00
      vertex -1.077340e+00 1.626018e-02 7.995971e-01
    endloop
  endfacet
  facet normal -5.152240e-01 4.813080e-01 7.091451e-01
    outer loop
      vertex -1.129112e+00 -3.743638e-02 8.372113e-01
      vertex -1.162903e+00 -1.097816e-01 8.617622e-01
      vertex -4.298445e-01 -1.097816e-01 1.394360e+00
    endloop
  endfacet
  facet normal -5.152239e-01 4.813084e-01 7.091449e-01
    outer loop
      vertex -4.298445e-01 -1.097816e-01 1.394360e+00
      vertex -4.169373e-01 -3.743638e-02 1.354636e+00
      vertex -1.129112e+00 -3.743638e-02 8.372113e-01
    endloop
  endfacet
  facet normal -5.796906e-01 1.653878e-01 7.978758e-01
    outer loop
      vertex -1.162903e+00 -1.097816e-01 8.617622e-01
      vertex -1.174639e+00 -1.920495e-01 8.702886e-01
      vertex -4.343271e-01 -1.920495e-01 1.408157e+00
    endloop
  endfacet
  facet normal -5.796906e-01 1.653877e-01 7.978758e-01
    outer loop
      vertex -4.343271e-01 -1.920495e-01 1.408157e+00
      vertex -4.298445e-01 -1.097816e-01 1.394360e+00
      vertex -1.162903e+00 -1.097816e-01 8.617622e-01
    endloop
  endfacet
  facet normal -5.796906e-01 -1.653877e-01 7.978758e-01
    outer loop
      vertex -1.174639e+00 -1.920495e-01 8.702886e-01
      vertex -1.162903e+00 -2.743174e-01 8.617622e-01
      vertex -4.298445e-01 -2.743174e-01 1.394360e+00
    endloop
  endfacet
  facet normal -5.796906e-01 -1.653877e-01 7.978758e-01
    outer loop
      vertex -4.298445e-01 -2.743174e-01 1.394360e+00
      vertex -4.343271e-01 -1.920495e-01 1.408157e+00
      vertex -1.174639e+00 -1.920495e-01 8.702886e-01
    endloop
  endfacet
  facet normal -5.152241e-01 -4.813079e-01 7.091451e-01
    outer loop
      vertex -1.162903e+00 -2.743174e-01 8.617622e-01
      vertex -1.129112e+00 -3.466626e-01 8.372113e-01
      vertex -4.169374e-01 -3.466626e-01 1.354636e+00
    endloop
  endfacet
  facet normal -5.152243e-01 -4.813070e-01 7.091455e-01
    outer loop
      vertex -4.169374e-01 -3.466626e-01 1.354636e+00
      vertex -4.298445e-01 -2.743174e-01 1.394360e+00
      vertex -1.162903e+00 -2.743174e-01 8.617622e-01
    endloop
  endfacet
  facet normal -3.888740e-01 -7.498640e-01 5.352392e-01
    outer loop
      vertex -1.129112e+00 -3.466626e-01 8.372113e-01
      vertex -1.077340e+00 -4.003592e-01 7.995971e-01
      vertex -3.971624e-01 -4.003592e-01 1.293775e+00
    endloop
  endfacet
  facet normal -3.888735e-01 -7.498648e-01 5.352384e-01
    outer loop
      vertex -3.971624e-01 -4.003592e-01 1.293775e+00
      vertex -4.169374e-01 -3.466626e-01 1.354636e+00
      vertex -1.129112e+00 -3.466626e-01 8.372113e-01
    endloop
  endfacet
  facet normal -2.100870e-01 -9.339432e-01 2.891600e-01
    outer loop
      vertex -1.077340e+00 -4.003592e-01 7.995971e-01
      vertex -1.013833e+00 -4.289305e-01 7.534565e-01
      vertex -3.729048e-01 -4.289305e-01 1.219118e+00
    endloop
  endfacet
  facet normal -2.100870e-01 -9.339432e-01 2.891600e-01
    outer loop
      vertex -3.729048e-01 -4.289305e-01 1.219118e+00
      vertex -3.971624e-01 -4.003592e-01 1.293775e+00
      vertex -1.077340e+00 -4.003592e-01 7.995971e-01
    endloop
  endfacet
  facet normal -4.409742e-07 -1.000000e+00 6.069489e-07
    outer loop
      vertex -1.013833e+00 -4.289305e-01 7.534565e-01
      vertex -9.462503e-01 -4.289306e-01 7.043546e-01
      vertex -3.470905e-01 -4.289306e-01 1.139670e+00
    endloop
  endfacet
  facet normal -4.409748e-07 -1.000000e+00 6.069499e-07
    outer loop
      vertex -3.470905e-01 -4.289306e-01 1.139670e+00
      vertex -3.729048e-01 -4.289305e-01 1.219118e+00
      vertex -1.013833e+00 -4.289305e-01 7.534565e-01
    endloop
  endfacet
  facet normal 2.100866e-01 -9.339435e-01 -2.891595e-01
    outer loop
      vertex -9.462503e-01 -4.289306e-01 7.043546e-01
      vertex -8.827432e-01 -4.003593e-01 6.582140e-01
      vertex -3.228329e-01 -4.003593e-01 1.065013e+00
    endloop
  endfacet
  facet normal 2.100864e-01 -9.339436e-01 -2.891591e-01
    outer loop
      vertex -3.228329e-01 -4.003593e-01 1.065013e+00
      vertex -3.470905e-01 -4.289306e-01 1.139670e+00
      vertex -9.462503e-01 -4.289306e-01 7.043546e-01
    endloop
  endfacet
  facet normal 3.888734e-01 -7.498649e-01 -5.352384e-01
    outer loop
      vertex -8.827432e-01 -4.003593e-01 6.582140e-01
      vertex -8.309717e-01 -3.466627e-01 6.205998e-01
      vertex -3.030580e-01 -3.466628e-01 1.004152e+00
    endloop
  endfacet
  facet normal 3.888735e-01 -7.498646e-01 -5.352386e-01
    outer loop
      vertex -3.030580e-01 -3.466628e-01 1.004152e+00
      vertex -3.228329e-01 -4.003593e-01 1.065013e+00
      vertex -8.827432e-01 -4.003593e-01 6.582140e-01
    endloop
  endfacet
  facet normal 5.152239e-01 -4.813085e-01 -7.091449e-01
    outer loop
      vertex -8.309717e-01 -3.466627e-01 6.205998e-01
      vertex -7.971802e-01 -2.743176e-01 5.960489e-01
      vertex -2.901508e-01 -2.743176e-01 9.644273e-01
    endloop
  endfacet
  facet normal 5.152237e-01 -4.813089e-01 -7.091447e-01
    outer loop
      vertex -2.901508e-01 -2.743176e-01 9.644273e-01
      vertex -3.030580e-01 -3.466628e-01 1.004152e+00
      vertex -8.309717e-01 -3.466627e-01 6.205998e-01
    endloop
  endfacet
  facet normal 5.796906e-01 -1.653880e-01 -7.978757e-01
    outer loop
      vertex -7.971802e-01 -2.743176e-01 5.960489e-01
      vertex -7.854446e-01 -1.920495e-01 5.875224e-01
      vertex -2.856681e-01 -1.920495e-01 9.506311e-01
    endloop
  endfacet
  facet normal 5.796906e-01 -1.653880e-01 -7.978758e-01
    outer loop
      vertex -2.856681e-01 -1.920495e-01 9.506311e-01
      vertex -2.901508e-01 -2.743176e-01 9.644273e-01
      vertex -7.971802e-01 -2.743176e-01 5.960489e-01
    endloop
  endfacet
  facet normal -9.352569e-08 1.653877e-01 -9.862286e-01
    outer loop
      vertex -2.856681e-01 -1.920495e-01 9.506311e-01
      vertex -2.901508e-01 -1.097816e-01 9.644272e-01
      vertex 3.365722e-01 -1.097816e-01 9.644272e-01
    endloop
  endfacet
  facet normal -9.488299e-08 1.653877e-01 -9.862286e-01
    outer loop
      vertex 3.365722e-01 -1.097816e-01 9.644272e-01
      vertex 3.320895e-01 -1.920495e-01 9.506311e-01
      vertex -2.856681e-01 -1.920495e-01 9.506311e-01
    endloop
  endfacet
  facet normal 0.000000e+00 4.813082e-01 -8.765514e-01
    outer loop
      vertex -2.901508e-01 -1.097816e-01 9.644272e-01
      vertex -3.030579e-01 -3.743638e-02 1.004151e+00
      vertex 3.494793e-01 -3.743638e-02 1.004151e+00
    endloop
  endfacet
  facet normal -8.552355e-08 4.813087e-01 -8.765512e-01
    outer loop
      vertex 3.494793e-01 -3.743638e-02 1.004151e+00
      vertex 3.365722e-01 -1.097816e-01 9.644272e-01
      vertex -2.901508e-01 -1.097816e-01 9.644272e-01
    endloop
  endfacet
  facet normal 1.657994e-08 7.498640e-01 -6.615919e-01
    outer loop
      vertex -3.030579e-01 -3.743638e-02 1.004151e+00
      vertex -3.228329e-01 1.626021e-02 1.065012e+00
      vertex 3.692542e-01 1.626019e-02 1.065012e+00
    endloop
  endfacet
  facet normal 0.000000e+00 7.498642e-01 -6.615918e-01
    outer loop
      vertex 3.692542e-01 1.626019e-02 1.065012e+00
      vertex 3.494793e-01 -3.743638e-02 1.004151e+00
      vertex -3.030579e-01 -3.743638e-02 1.004151e+00
    endloop
  endfacet
  facet normal -3.932819e-08 9.339435e-01 -3.574207e-01
    outer loop
      vertex -3.228329e-01 1.626021e-02 1.065012e+00
      vertex -3.470905e-01 4.483156e-02 1.139670e+00
      vertex 3.935119e-01 4.483154e-02 1.139670e+00
    endloop
  endfacet
  facet normal 1.683406e-08 9.339433e-01 -3.574212e-01
    outer loop
      vertex 3.935119e-01 4.483154e-02 1.139670e+00
      vertex 3.692542e-01 1.626019e-02 1.065012e+00
      vertex -3.228329e-01 1.626021e-02 1.065012e+00
    endloop
  endfacet
  facet normal 1.880914e-08 1.000000e+00 1.936690e-07
    outer loop
      vertex -3.470905e-01 4.483156e-02 1.139670e+00
      vertex -3.729048e-01 4.483154e-02 1.219118e+00
      vertex 4.193262e-01 4.483153e-02 1.219118e+00
    endloop
  endfacet
  facet normal 2.012036e-08 1.000000e+00 1.810201e-07
    outer loop
      vertex 4.193262e-01 4.483153e-02 1.219118e+00
      vertex 3.935119e-01 4.483154e-02 1.139670e+00
      vertex -3.470905e-01 4.483156e-02 1.139670e+00
    endloop
  endfacet
  facet normal 6.582309e-08 9.339433e-01 3.574212e-01
    outer loop
      vertex -3.729048e-01 4.483154e-02 1.219118e+00
      vertex -3.971624e-01 1.626019e-02 1.293775e+00
      vertex 4.435838e-01 1.626018e-02 1.293775e+00
    endloop
  endfacet
  facet normal 6.985401e-08 9.339433e-01 3.574211e-01
    outer loop
      vertex 4.435838e-01 1.626018e-02 1.293775e+00
      vertex 4.193262e-01 4.483153e-02 1.219118e+00
      vertex -3.729048e-01 4.483154e-02 1.219118e+00
    endloop
  endfacet
  facet normal 9.124582e-08 7.498641e-01 6.615919e-01
    outer loop
      vertex -3.971624e-01 1.626019e-02 1.293775e+00
      vertex -4.169373e-01 -3.743638e-02 1.354636e+00
      vertex 4.633588e-01 -3.743638e-02 1.354636e+00
    endloop
  endfacet
  facet normal 1.091865e-07 7.498643e-01 6.615917e-01
    outer loop
      vertex 4.633588e-01 -3.743638e-02 1.354636e+00
      vertex 4.435838e-01 1.626018e-02 1.293775e+00
      vertex -3.971624e-01 1.626019e-02 1.293775e+00
    endloop
  endfacet
  facet normal 1.183070e-07 4.813082e-01 8.765514e-01
    outer loop
      vertex -4.169373e-01 -3.743638e-02 1.354636e+00
      vertex -4.298445e-01 -1.097816e-01 1.394360e+00
      vertex 4.762659e-01 -1.097816e-01 1.394360e+00
    endloop
  endfacet
  facet normal 1.185716e-07 4.813082e-01 8.765514e-01
    outer loop
      vertex 4.762659e-01 -1.097816e-01 1.394360e+00
      vertex 4.633588e-01 -3.743638e-02 1.354636e+00
      vertex -4.169373e-01 -3.743638e-02 1.354636e+00
    endloop
  endfacet
  facet normal 1.281090e-07 1.653877e-01 9.862286e-01
    outer loop
      vertex -4.298445e-01 -1.097816e-01 1.394360e+00
      vertex -4.343271e-01 -1.920495e-01 1.408157e+00
      vertex 4.807485e-01 -1.920495e-01 1.408156e+00
    endloop
  endfacet
  facet normal 1.309167e-07 1.653877e-01 9.862286e-01
    outer loop
      vertex 4.807485e-01 -1.920495e-01 1.408156e+00
      vertex 4.762659e-01 -1.097816e-01 1.394360e+00
      vertex -4.298445e-01 -1.097816e-01 1.394360e+00
    endloop
  endfacet
  facet normal 1.293765e-07 -1.653877e-01 9.862286e-01
    outer loop
      vertex -4.343271e-01 -1.920495e-01 1.408157e+00
      vertex -4.298445e-01 -2.743174e-01 1.394360e+00
      vertex 4.762659e-01 -2.743174e-01 1.394360e+00
    endloop
  endfacet
  facet normal 1.281090e-07 -1.653877e-01 9.862286e-01
    outer loop
      vertex 4.762659e-01 -2.743174e-01 1.394360e+00
      vertex 4.807485e-01 -1.920495e-01 1.408156e+00
      vertex -4.343271e-01 -1.920495e-01 1.408157e+00
    endloop
  endfacet
  facet normal 1.185717e-07 -4.813070e-01 8.765520e-01
    outer loop
      vertex -4.298445e-01 -2.743174e-01 1.394360e+00
      vertex -4.169374e-01 -3.466626e-01 1.354636e+00
      vertex 4.633588e-01 -3.466626e-01 1.354636e+00
    endloop
  endfacet
  facet normal 1.151937e-07 -4.813070e-01 8.765521e-01
    outer loop
      vertex 4.633588e-01 -3.466626e-01 1.354636e+00
      vertex 4.762659e-01 -2.743174e-01 1.394360e+00
      vertex -4.298445e-01 -2.743174e-01 1.394360e+00
    endloop
  endfacet
  facet normal 0.000000e+00 -7.498648e-01 6.615911e-01
    outer loop
      vertex -4.169374e-01 -3.466626e-01 1.354636e+00
      vertex -3.971624e-01 -4.003592e-01 1.293775e+00
      vertex 4.435838e-01 -4.003592e-01 1.293775e+00
    endloop
  endfacet
  facet normal 8.798703e-08 -7.498642e-01 6.615918e-01
    outer loop
      vertex 4.435838e-01 -4.003592e-01 1.293775e+00
      vertex 4.633588e-01 -3.466626e-01 1.354636e+00
      vertex -4.169374e-01 -3.466626e-01 1.354636e+00
    endloop
  endfacet
  facet normal 0.000000e+00 -9.339433e-01 3.574213e-01
    outer loop
      vertex -3.971624e-01 -4.003592e-01 1.293775e+00
      vertex -3.729048e-01 -4.289305e-01 1.219118e+00
      vertex 4.193262e-01 -4.289305e-01 1.219118e+00
    endloop
  endfacet
  facet normal 0.000000e+00 -9.339432e-01 3.574213e-01
    outer loop
      vertex 4.193262e-01 -4.289305e-01 1.219118e+00
      vertex 4.435838e-01 -4.003592e-01 1.293775e+00
      vertex -3.971624e-01 -4.003592e-01 1.293775e+00
    endloop
  endfacet
  facet normal 1.207592e-13 -1.000000e+00 7.502315e-07
    outer loop
      vertex -3.729048e-01 -4.289305e-01 1.219118e+00
      vertex -3.470905e-01 -4.289306e-01 1.139670e+00
      vertex 3.935119e-01 -4.289306e-01 1.139670e+00
    endloop
  endfacet
  facet normal 0.000000e+00 -1.000000e+00 7.502303e-07
    outer loop
      vertex 3.935119e-01 -4.289306e-01 1.139670e+00
      vertex 4.193262e-01 -4.289305e-01 1.219118e+00
      vertex -3.729048e-01 -4.289305e-01 1.219118e+00
    endloop
  endfacet
  facet normal 0.000000e+00 -9.339437e-01 -3.574202e-01
    outer loop
      vertex -3.470905e-01 -4.289306e-01 1.139670e+00
      vertex -3.228329e-01 -4.003593e-01 1.065013e+00
      vertex 3.692544e-01 -4.003593e-01 1.065013e+00
    endloop
  endfacet
  facet normal -5.899237e-08 -9.339435e-01 -3.574207e-01
    outer loop
      vertex 3.692544e-01 -4.003593e-01 1.065013e+00
      vertex 3.935119e-01 -4.289306e-01 1.139670e+00
      vertex -3.470905e-01 -4.289306e-01 1.139670e+00
    endloop
  endfacet
  facet normal -8.792424e-08 -7.498645e-01 -6.615914e-01
    outer loop
      vertex -3.228329e-01 -4.003593e-01 1.065013e+00
      vertex -3.030580e-01 -3.466628e-01 1.004152e+00
      vertex 3.494793e-01 -3.466627e-01 1.004151e+00
    endloop
  endfacet
  facet normal 0.000000e+00 -7.498650e-01 -6.615909e-01
    outer loop
      vertex 3.494793e-01 -3.466627e-01 1.004151e+00
      vertex 3.692544e-01 -4.003593e-01 1.065013e+00
      vertex -3.228329e-01 -4.003593e-01 1.065013e+00
    endloop
  endfacet
  facet normal -8.102234e-08 -4.813088e-01 -8.765511e-01
    outer loop
      vertex -3.030580e-01 -3.466628e-01 1.004152e+00
      vertex -2.901508e-01 -2.743176e-01 9.644273e-01
      vertex 3.365722e-01 -2.743176e-01 9.644272e-01
    endloop
  endfacet
  facet normal -1.383416e-07 -4.813085e-01 -8.765513e-01
    outer loop
      vertex 3.365722e-01 -2.743176e-01 9.644272e-01
      vertex 3.494793e-01 -3.466627e-01 1.004151e+00
      vertex -3.030580e-01 -3.466628e-01 1.004152e+00
    endloop
  endfacet
  facet normal -9.488279e-08 -1.653880e-01 -9.862286e-01
    outer loop
      vertex -2.901508e-01 -2.743176e-01 9.644273e-01
      vertex -2.856681e-01 -1.920495e-01 9.506311e-01
      vertex 3.320895e-01 -1.920495e-01 9.506311e-01
    endloop
  endfacet
  facet normal -9.352549e-08 -1.653880e-01 -9.862286e-01
    outer loop
      vertex 3.320895e-01 -1.920495e-01 9.506311e-01
      vertex 3.365722e-01 -2.743176e-01 9.644272e-01
      vertex -2.901508e-01 -2.743176e-01 9.644273e-01
    endloop
  endfacet
  facet normal -5.796908e-01 1.653877e-01 -7.978756e-01
    outer loop
      vertex 3.320895e-01 -1.920495e-01 9.506311e-01
      vertex 3.365722e-01 -1.097816e-01 9.644272e-01
      vertex 8.436015e-01 -1.097816e-01 5.960487e-01
    endloop
  endfacet
  facet normal -5.796908e-01 1.653877e-01 -7.978756e-01
    outer loop
      vertex 8.436015e-01 -1.097816e-01 5.960487e-01
      vertex 8.318658e-01 -1.920495e-01 5.875223e-01
      vertex 3.320895e-01 -1.920495e-01 9.506311e-01
    endloop
  endfacet
  facet normal -5.152240e-01 4.813084e-01 -7.091449e-01
    outer loop
      vertex 3.365722e-01 -1.097816e-01 9.644272e-01
      vertex 3.494793e-01 -3.743638e-02 1.004151e+00
      vertex 8.773930e-01 -3.743638e-02 6.205996e-01
    endloop
  endfacet
  facet normal -5.152240e-01 4.813086e-01 -7.091448e-01
    outer loop
      vertex 8.773930e-01 -3.743638e-02 6.205996e-01
      vertex 8.436015e-01 -1.097816e-01 5.960487e-01
      vertex 3.365722e-01 -1.097816e-01 9.644272e-01
    endloop
  endfacet
  facet normal -3.888741e-01 7.498641e-01 -5.352390e-01
    outer loop
      vertex 3.494793e-01 -3.743638e-02 1.004151e+00
      vertex 3.692542e-01 1.626019e-02 1.065012e+00
      vertex 9.291644e-01 1.626019e-02 6.582138e-01
    endloop
  endfacet
  facet normal -3.888741e-01 7.498640e-01 -5.352391e-01
    outer loop
      vertex 9.291644e-01 1.626019e-02 6.582138e-01
      vertex 8.773930e-01 -3.743638e-02 6.205996e-01
      vertex 3.494793e-01 -3.743638e-02 1.004151e+00
    endloop
  endfacet
  facet normal -2.100868e-01 9.339434e-01 -2.891596e-01
    outer loop
      vertex 3.692542e-01 1.626019e-02 1.065012e+00
      vertex 3.935119e-01 4.483154e-02 1.139670e+00
      vertex 9.926715e-01 4.483154e-02 7.043545e-01
    endloop
  endfacet
  facet normal -2.100869e-01 9.339433e-01 -2.891597e-01
    outer loop
      vertex 9.926715e-01 4.483154e-02 7.043545e-01
      vertex 9.291644e-01 1.626019e-02 6.582138e-01
      vertex 3.692542e-01 1.626019e-02 1.065012e+00
    endloop
  endfacet
  facet normal 1.102437e-07 1.000000e+00 1.517373e-07
    outer loop
      vertex 3.935119e-01 4.483154e-02 1.139670e+00
      vertex 4.193262e-01 4.483153e-02 1.219118e+00
      vertex 1.060254e+00 4.483153e-02 7.534563e-01
    endloop
  endfacet
  facet normal 1.102437e-07 1.000000e+00 1.517373e-07
    outer loop
      vertex 1.060254e+00 4.483153e-02 7.534563e-01
      vertex 9.926715e-01 4.483154e-02 7.043545e-01
      vertex 3.935119e-01 4.483154e-02 1.139670e+00
    endloop
  endfacet
  facet normal 2.100868e-01 9.339434e-01 2.891596e-01
    outer loop
      vertex 4.193262e-01 4.483153e-02 1.219118e+00
      vertex 4.435838e-01 1.626018e-02 1.293775e+00
      vertex 1.123762e+00 1.626018e-02 7.995969e-01
    endloop
  endfacet
  facet normal 2.100866e-01 9.339435e-01 2.891594e-01
    outer loop
      vertex 1.123762e+00 1.626018e-02 7.995969e-01
      vertex 1.060254e+00 4.483153e-02 7.534563e-01
      vertex 4.193262e-01 4.483153e-02 1.219118e+00
    endloop
  endfacet
  facet normal 3.888740e-01 7.498642e-01 5.352390e-01
    outer loop
      vertex 4.435838e-01 1.626018e-02 1.293775e+00
      vertex 4.633588e-01 -3.743638e-02 1.354636e+00
      vertex 1.175533e+00 -3.743638e-02 8.372111e-01
    endloop
  endfacet
  facet normal 3.888740e-01 7.498641e-01 5.352390e-01
    outer loop
      vertex 1.175533e+00 -3.743638e-02 8.372111e-01
      vertex 1.123762e+00 1.626018e-02 7.995969e-01
      vertex 4.435838e-01 1.626018e-02 1.293775e+00
    endloop
  endfacet
  facet normal 5.152241e-01 4.813080e-01 7.091451e-01
    outer loop
      vertex 4.633588e-01 -3.743638e-02 1.354636e+00
      vertex 4.762659e-01 -1.097816e-01 1.394360e+00
      vertex 1.209325e+00 -1.097816e-01 8.617620e-01
    endloop
  endfacet
  facet normal 5.152239e-01 4.813086e-01 7.091448e-01
    outer loop
      vertex 1.209325e+00 -1.097816e-01 8.617620e-01
      vertex 1.175533e+00 -3.743638e-02 8.372111e-01
      vertex 4.633588e-01 -3.743638e-02 1.354636e+00
    endloop
  endfacet
  facet normal 5.796908e-01 1.653877e-01 7.978756e-01
    outer loop
      vertex 4.762659e-01 -1.097816e-01 1.394360e+00
      vertex 4.807485e-01 -1.920495e-01 1.408156e+00
      vertex 1.221060e+00 -1.920495e-01 8.702884e-01
    endloop
  endfacet
  facet normal 5.796908e-01 1.653861e-01 7.978759e-01
    outer loop
      vertex 1.221060e+00 -1.920495e-01 8.702884e-01
      vertex 1.209325e+00 -1.097816e-01 8.617620e-01
      vertex 4.762659e-01 -1.097816e-01 1.394360e+00
    endloop
  endfacet
  facet normal 5.796906e-01 -1.653877e-01 7.978757e-01
    outer loop
      vertex 4.807485e-01 -1.920495e-01 1.408156e+00
      vertex 4.762659e-01 -2.743174e-01 1.394360e+00
      vertex 1.209325e+00 -2.743174e-01 8.617620e-01
    endloop
  endfacet
  facet normal 5.796909e-01 -1.653861e-01 7.978758e-01
    outer loop
      vertex 1.209325e+00 -2.743174e-01 8.617620e-01
      vertex 1.221060e+00 -1.920495e-01 8.702884e-01
      vertex 4.807485e-01 -1.920495e-01 1.408156e+00
    endloop
  endfacet
  facet normal 5.152245e-01 -4.813070e-01 7.091454e-01
    outer loop
      vertex 4.762659e-01 -2.743174e-01 1.394360e+00
      vertex 4.633588e-01 -3.466626e-01 1.354636e+00
      vertex 1.175533e+00 -3.466626e-01 8.372111e-01
    endloop
  endfacet
  facet normal 5.152240e-01 -4.813081e-01 7.091450e-01
    outer loop
      vertex 1.175533e+00 -3.466626e-01 8.372111e-01
      vertex 1.209325e+00 -2.743174e-01 8.617620e-01
      vertex 4.762659e-01 -2.743174e-01 1.394360e+00
    endloop
  endfacet
  facet normal 3.888741e-01 -7.498640e-01 5.352391e-01
    outer loop
      vertex 4.633588e-01 -3.466626e-01 1.354636e+00
      vertex 4.435838e-01 -4.003592e-01 1.293775e+00
      vertex 1.123762e+00 -4.003592e-01 7.995970e-01
    endloop
  endfacet
  facet normal 3.888741e-01 -7.498640e-01 5.352391e-01
    outer loop
      vertex 1.123762e+00 -4.003592e-01 7.995970e-01
      vertex 1.175533e+00 -3.466626e-01 8.372111e-01
      vertex 4.633588e-01 -3.466626e-01 1.354636e+00
    endloop
  endfacet
  facet normal 2.100869e-01 -9.339433e-01 2.891597e-01
    outer loop
      vertex 4.435838e-01 -4.003592e-01 1.293775e+00
      vertex 4.193262e-01 -4.289305e-01 1.219118e+00
      vertex 1.060255e+00 -4.289305e-01 7.534564e-01
    endloop
  endfacet
  facet normal 2.100871e-01 -9.339432e-01 2.891600e-01
    outer loop
      vertex 1.060255e+00 -4.289305e-01 7.534564e-01
      vertex 1.123762e+00 -4.003592e-01 7.995970e-01
      vertex 4.435838e-01 -4.003592e-01 1.293775e+00
    endloop
  endfacet
  facet normal 4.409746e-07 -1.000000e+00 6.069494e-07
    outer loop
      vertex 4.193262e-01 -4.289305e-01 1.219118e+00
      vertex 3.935119e-01 -4.289306e-01 1.139670e+00
      vertex 9.926717e-01 -4.289306e-01 7.043545e-01
    endloop
  endfacet
  facet normal 4.409746e-07 -1.000000e+00 6.069494e-07
    outer loop
      vertex 9.926717e-01 -4.289306e-01 7.043545e-01
      vertex 1.060255e+00 -4.289305e-01 7.534564e-01
      vertex 4.193262e-01 -4.289305e-01 1.219118e+00
    endloop
  endfacet
  facet normal -2.100867e-01 -9.339435e-01 -2.891594e-01
    outer loop
      vertex 3.935119e-01 -4.289306e-01 1.139670e+00
      vertex 3.692544e-01 -4.003593e-01 1.065013e+00
      vertex 9.291644e-01 -4.003593e-01 6.582139e-01
    endloop
  endfacet
  facet normal -2.100863e-01 -9.339437e-01 -2.891590e-01
    outer loop
      vertex 9.291644e-01 -4.003593e-01 6.582139e-01
      vertex 9.926717e-01 -4.289306e-01 7.043545e-01
      vertex 3.935119e-01 -4.289306e-01 1.139670e+00
    endloop
  endfacet
  facet normal -3.888732e-01 -7.498652e-01 -5.352381e-01
    outer loop
      vertex 3.692544e-01 -4.003593e-01 1.065013e+00
      vertex 3.494793e-01 -3.466627e-01 1.004151e+00
      vertex 8.773930e-01 -3.466627e-01 6.205997e-01
    endloop
  endfacet
  facet normal -3.888738e-01 -7.498645e-01 -5.352387e-01
    outer loop
      vertex 8.773930e-01 -3.466627e-01 6.205997e-01
      vertex 9.291644e-01 -4.003593e-01 6.582139e-01
      vertex 3.692544e-01 -4.003593e-01 1.065013e+00
    endloop
  endfacet
  facet normal -5.152241e-01 -4.813082e-01 -7.091449e-01
    outer loop
      vertex 3.494793e-01 -3.466627e-01 1.004151e+00
      vertex 3.365722e-01 -2.743176e-01 9.644272e-01
      vertex 8.436015e-01 -2.743176e-01 5.960488e-01
    endloop
  endfacet
  facet normal -5.152239e-01 -4.813089e-01 -7.091447e-01
    outer loop
      vertex 8.436015e-01 -2.743176e-01 5.960488e-01
      vertex 8.773930e-01 -3.466627e-01 6.205997e-01
      vertex 3.494793e-01 -3.466627e-01 1.004151e+00
    endloop
  endfacet
  facet normal -5.796908e-01 -1.653879e-01 -7.978756e-01
    outer loop
      vertex 3.365722e-01 -2.743176e-01 9.644272e-01
      vertex 3.320895e-01 -1.920495e-01 9.506311e-01
      vertex 8.318658e-01 -1.920495e-01 5.875223e-01
    endloop
  endfacet
  facet normal -5.796907e-01 -1.653880e-01 -7.978756e-01
    outer loop
      vertex 8.318658e-01 -1.920495e-01 5.875223e-01
      vertex 8.436015e-01 -2.743176e-01 5.960488e-01
      vertex 3.365722e-01 -2.743176e-01 9.644272e-01
    endloop
  endfacet
  facet normal -9.379592e-01 1.653879e-01 -3.047612e-01
    outer loop
      vertex 8.318658e-01 -1.920495e-01 5.875223e-01
      vertex 8.436015e-01 -1.097816e-01 5.960487e-01
      vertex 1.037269e+00 -1.097816e-01 -8.865184e-08
    endloop
  endfacet
  facet normal -9.379592e-01 1.653880e-01 -3.047612e-01
    outer loop
      vertex 1.037269e+00 -1.097816e-01 -8.865184e-08
      vertex 1.022763e+00 -1.920495e-01 -8.738368e-08
      vertex 8.318658e-01 -1.920495e-01 5.875223e-01
    endloop
  endfacet
  facet normal -8.336496e-01 4.813089e-01 -2.708690e-01
    outer loop
      vertex 8.436015e-01 -1.097816e-01 5.960487e-01
      vertex 8.773930e-01 -3.743638e-02 6.205996e-01
      vertex 1.079038e+00 -3.743638e-02 -9.230336e-08
    endloop
  endfacet
  facet normal -8.336499e-01 4.813084e-01 -2.708691e-01
    outer loop
      vertex 1.079038e+00 -3.743638e-02 -9.230336e-08
      vertex 1.037269e+00 -1.097816e-01 -8.865184e-08
      vertex 8.436015e-01 -1.097816e-01 5.960487e-01
    endloop
  endfacet
  facet normal -6.292115e-01 7.498639e-01 -2.044431e-01
    outer loop
      vertex 8.773930e-01 -3.743638e-02 6.205996e-01
      vertex 9.291644e-01 1.626019e-02 6.582138e-01
      vertex 1.143031e+00 1.626019e-02 -9.789781e-08
    endloop
  endfacet
  facet normal -6.292115e-01 7.498639e-01 -2.044430e-01
    outer loop
      vertex 1.143031e+00 1.626019e-02 -9.789781e-08
      vertex 1.079038e+00 -3.743638e-02 -9.230336e-08
      vertex 8.773930e-01 -3.743638e-02 6.205996e-01
    endloop
  endfacet
  facet normal -3.399278e-01 9.339433e-01 -1.104493e-01
    outer loop
      vertex 9.291644e-01 1.626019e-02 6.582138e-01
      vertex 9.926715e-01 4.483154e-02 7.043545e-01
      vertex 1.221530e+00 4.483154e-02 -1.047604e-07
    endloop
  endfacet
  facet normal -3.399269e-01 9.339436e-01 -1.104489e-01
    outer loop
      vertex 1.221530e+00 4.483154e-02 -1.047604e-07
      vertex 1.143031e+00 1.626019e-02 -9.789781e-08
      vertex 9.291644e-01 1.626019e-02 6.582138e-01
    endloop
  endfacet
  facet normal 1.783780e-07 1.000000e+00 5.795855e-08
    outer loop
      vertex 9.926715e-01 4.483154e-02 7.043545e-01
      vertex 1.060254e+00 4.483153e-02 7.534563e-01
      vertex 1.305067e+00 4.483153e-02 -1.120635e-07
    endloop
  endfacet
  facet normal 1.783778e-07 1.000000e+00 5.795846e-08
    outer loop
      vertex 1.305067e+00 4.483153e-02 -1.120635e-07
      vertex 1.221530e+00 4.483154e-02 -1.047604e-07
      vertex 9.926715e-01 4.483154e-02 7.043545e-01
    endloop
  endfacet
  facet normal 3.399270e-01 9.339436e-01 1.104489e-01
    outer loop
      vertex 1.060254e+00 4.483153e-02 7.534563e-01
      vertex 1.123762e+00 1.626018e-02 7.995969e-01
      vertex 1.383566e+00 1.626018e-02 -1.189261e-07
    endloop
  endfacet
  facet normal 3.399279e-01 9.339433e-01 1.104493e-01
    outer loop
      vertex 1.383566e+00 1.626018e-02 -1.189261e-07
      vertex 1.305067e+00 4.483153e-02 -1.120635e-07
      vertex 1.060254e+00 4.483153e-02 7.534563e-01
    endloop
  endfacet
  facet normal 6.292114e-01 7.498640e-01 2.044431e-01
    outer loop
      vertex 1.123762e+00 1.626018e-02 7.995969e-01
      vertex 1.175533e+00 -3.743638e-02 8.372111e-01
      vertex 1.447559e+00 -3.743638e-02 -1.245205e-07
    endloop
  endfacet
  facet normal 6.292114e-01 7.498640e-01 2.044431e-01
    outer loop
      vertex 1.447559e+00 -3.743638e-02 -1.245205e-07
      vertex 1.383566e+00 1.626018e-02 -1.189261e-07
      vertex 1.123762e+00 1.626018e-02 7.995969e-01
    endloop
  endfacet
  facet normal 8.336496e-01 4.813090e-01 2.708690e-01
    outer loop
      vertex 1.175533e+00 -3.743638e-02 8.372111e-01
      vertex 1.209325e+00 -1.097816e-01 8.617620e-01
      vertex 1.489328e+00 -1.097816e-01 -1.281720e-07
    endloop
  endfacet
  facet normal 8.336499e-01 4.813084e-01 2.708692e-01
    outer loop
      vertex 1.489328e+00 -1.097816e-01 -1.281720e-07
      vertex 1.447559e+00 -3.743638e-02 -1.245205e-07
      vertex 1.175533e+00 -3.743638e-02 8.372111e-01
    endloop
  endfacet
  facet normal 9.379595e-01 1.653853e-01 3.047616e-01
    outer loop
      vertex 1.209325e+00 -1.097816e-01 8.617620e-01
      vertex 1.221060e+00 -1.920495e-01 8.702884e-01
      vertex 1.503834e+00 -1.920495e-01 -1.294402e-07
    endloop
  endfacet
  facet normal 9.379591e-01 1.653881e-01 3.047612e-01
    outer loop
      vertex 1.503834e+00 -1.920495e-01 -1.294402e-07
      vertex 1.489328e+00 -1.097816e-01 -1.281720e-07
      vertex 1.209325e+00 -1.097816e-01 8.617620e-01
    endloop
  endfacet
  facet normal 9.379596e-01 -1.653852e-01 3.047614e-01
    outer loop
      vertex 1.221060e+00 -1.920495e-01 8.702884e-01
      vertex 1.209325e+00 -2.743174e-01 8.617620e-01
      vertex 1.489328e+00 -2.743174e-01 -1.281720e-07
    endloop
  endfacet
  facet normal 9.379591e-01 -1.653880e-01 3.047615e-01
    outer loop
      vertex 1.489328e+00 -2.743174e-01 -1.281720e-07
      vertex 1.503834e+00 -1.920495e-01 -1.294402e-07
      vertex 1.221060e+00 -1.920495e-01 8.702884e-01
    endloop
  endfacet
  facet normal 8.336497e-01 -4.813087e-01 2.708691e-01
    outer loop
      vertex 1.209325e+00 -2.743174e-01 8.617620e-01
      vertex 1.175533e+00 -3.466626e-01 8.372111e-01
      vertex 1.447559e+00 -3.466626e-01 -1.245205e-07
    endloop
  endfacet
  facet normal 8.336499e-01 -4.813084e-01 2.708691e-01
    outer loop
      vertex 1.447559e+00 -3.466626e-01 -1.245205e-07
      vertex 1.489328e+00 -2.743174e-01 -1.281720e-07
      vertex 1.209325e+00 -2.743174e-01 8.617620e-01
    endloop
  endfacet
  facet normal 6.292115e-01 -7.498639e-01 2.044431e-01
    outer loop
      vertex 1.175533e+00 -3.466626e-01 8.372111e-01
      vertex 1.123762e+00 -4.003592e-01 7.995970e-01
      vertex 1.383566e+00 -4.003592e-01 -1.189261e-07
    endloop
  endfacet
  facet normal 6.292115e-01 -7.498639e-01 2.044431e-01
    outer loop
      vertex 1.383566e+00 -4.003592e-01 -1.189261e-07
      vertex 1.447559e+00 -3.466626e-01 -1.245205e-07
      vertex 1.175533e+00 -3.466626e-01 8.372111e-01
    endloop
  endfacet
  facet normal 3.399280e-01 -9.339432e-01 1.104493e-01
    outer loop
      vertex 1.123762e+00 -4.003592e-01 7.995970e-01
      vertex 1.060255e+00 -4.289305e-01 7.534564e-01
      vertex 1.305067e+00 -4.289305e-01 -1.120635e-07
    endloop
  endfacet
  facet normal 3.399280e-01 -9.339432e-01 1.104493e-01
    outer loop
      vertex 1.305067e+00 -4.289305e-01 -1.120635e-07
      vertex 1.383566e+00 -4.003592e-01 -1.189261e-07
      vertex 1.123762e+00 -4.003592e-01 7.995970e-01
    endloop
  endfacet
  facet normal 7.135121e-07 -1.000000e+00 2.318339e-07
    outer loop
      vertex 1.060255e+00 -4.289305e-01 7.534564e-01
      vertex 9.926717e-01 -4.289306e-01 7.043545e-01
      vertex 1.221530e+00 -4.289306e-01 -1.047604e-07
    endloop
  endfacet
  facet normal 7.135110e-07 -1.000000e+00 2.318337e-07
    outer loop
      vertex 1.221530e+00 -4.289306e-01 -1.047604e-07
      vertex 1.305067e+00 -4.289305e-01 -1.120635e-07
      vertex 1.060255e+00 -4.289305e-01 7.534564e-01
    endloop
  endfacet
  facet normal -3.399265e-01 -9.339438e-01 -1.104488e-01
    outer loop
      vertex 9.926717e-01 -4.289306e-01 7.043545e-01
      vertex 9.291644e-01 -4.003593e-01 6.582139e-01
      vertex 1.143031e+00 -4.003593e-01 -9.789782e-08
    endloop
  endfacet
  facet normal -3.399274e-01 -9.339435e-01 -1.104490e-01
    outer loop
      vertex 1.143031e+00 -4.003593e-01 -9.789782e-08
      vertex 1.221530e+00 -4.289306e-01 -1.047604e-07
      vertex 9.926717e-01 -4.289306e-01 7.043545e-01
    endloop
  endfacet
  facet normal -6.292112e-01 -7.498642e-01 -2.044429e-01
    outer loop
      vertex 9.291644e-01 -4.003593e-01 6.582139e-01
      vertex 8.773930e-01 -3.466627e-01 6.205997e-01
      vertex 1.079038e+00 -3.466627e-01 -9.230337e-08
    endloop
  endfacet
  facet normal -6.292101e-01 -7.498652e-01 -2.044427e-01
    outer loop
      vertex 1.079038e+00 -3.466627e-01 -9.230337e-08
      vertex 1.143031e+00 -4.003593e-01 -9.789782e-08
      vertex 9.291644e-01 -4.003593e-01 6.582139e-01
    endloop
  endfacet
  facet normal -8.336495e-01 -4.813092e-01 -2.708690e-01
    outer loop
      vertex 8.773930e-01 -3.466627e-01 6.205997e-01
      vertex 8.436015e-01 -2.743176e-01 5.960488e-01
      vertex 1.037269e+00 -2.743176e-01 -8.865184e-08
    endloop
  endfacet
  facet normal -8.336498e-01 -4.813087e-01 -2.708690e-01
    outer loop
      vertex 1.037269e+00 -2.743176e-01 -8.865184e-08
      vertex 1.079038e+00 -3.466627e-01 -9.230337e-08
      vertex 8.773930e-01 -3.466627e-01 6.205997e-01
    endloop
  endfacet
  facet normal -9.379592e-01 -1.653878e-01 -3.047613e-01
    outer loop
      vertex 8.436015e-01 -2.743176e-01 5.960488e-01
      vertex 8.318658e-01 -1.920495e-01 5.875223e-01
      vertex 1.022763e+00 -1.920495e-01 -8.738368e-08
    endloop
  endfacet
  facet normal -9.379592e-01 -1.653877e-01 -3.047612e-01
    outer loop
      vertex 1.022763e+00 -1.920495e-01 -8.738368e-08
      vertex 1.037269e+00 -2.743176e-01 -8.865184e-08
      vertex 8.436015e-01 -2.743176e-01 5.960488e-01
    endloop
  endfacet
  facet normal -8.742300e-08 1.395474e-13 -1.000000e+00
    outer loop
      vertex 1.022763e+00 -1.920495e-01 -8.738368e-08
      vertex 1.037269e+00 -1.097816e-01 -8.865184e-08
      vertex 1.079038e+00 -3.743638e-02 -9.230336e-08
    endloop
  endfacet
  facet normal -8.742235e-08 -6.279600e-13 -1.000000e+00
    outer loop
      vertex 1.079038e+00 -3.743638e-02 -9.230336e-08
      vertex 1.143031e+00 1.626019e-02 -9.789781e-08
      vertex 1.221530e+00 4.483154e-02 -1.047604e-07
    endloop
  endfacet
  facet normal -8.742275e-08 2.790946e-13 -1.000000e+00
    outer loop
      vertex 1.221530e+00 4.483154e-02 -1.047604e-07
      vertex 1.305067e+00 4.483153e-02 -1.120635e-07
      vertex 1.383566e+00 1.626018e-02 -1.189261e-07
    endloop
  endfacet
  facet normal -8.742278e-08 1.020802e-13 -1.000000e+00
    outer loop
      vertex 1.079038e+00 -3.743638e-02 -9.230336e-08
      vertex 1.221530e+00 4.483154e-02 -1.047604e-07
      vertex 1.383566e+00 1.626018e-02 -1.189261e-07
    endloop
  endfacet
  facet normal -8.742280e-08 -2.325799e-14 -1.000000e+00
    outer loop
      vertex 1.383566e+00 1.626018e-02 -1.189261e-07
      vertex 1.447559e+00 -3.743638e-02 -1.245205e-07
      vertex 1.489328e+00 -1.097816e-01 -1.281720e-07
    endloop
  endfacet
  facet normal -8.742269e-08 0.000000e+00 -1.000000e+00
    outer loop
      vertex 1.489328e+00 -1.097816e-01 -1.281720e-07
      vertex 1.503834e+00 -1.920495e-01 -1.294402e-07
      vertex 1.489328e+00 -2.743174e-01 -1.281720e-07
    endloop
  endfacet
  facet normal -8.742277e-08 0.000000e+00 -1.000000e+00
    outer loop
      vertex 1.383566e+00 1.626018e-02 -1.189261e-07
      vertex 1.489328e+00 -1.097816e-01 -1.281720e-07
      vertex 1.489328e+00 -2.743174e-01 -1.281720e-07
    endloop
  endfacet
  facet normal -8.742354e-08 6.512236e-13 -1.000000e+00
    outer loop
      vertex 1.489328e+00 -2.743174e-01 -1.281720e-07
      vertex 1.447559e+00 -3.466626e-01 -1.245205e-07
      vertex 1.383566e+00 -4.003592e-01 -1.189261e-07
    endloop
  endfacet
  facet normal -8.742266e-08 -2.325791e-13 -1.000000e+00
    outer loop
      vertex 1.383566e+00 -4.003592e-01 -1.189261e-07
      vertex 1.305067e+00 -4.289305e-01 -1.120635e-07
      vertex 1.221530e+00 -4.289306e-01 -1.047604e-07
    endloop
  endfacet
  facet normal -8.742271e-08 -5.104014e-14 -1.000000e+00
    outer loop
      vertex 1.489328e+00 -2.743174e-01 -1.281720e-07
      vertex 1.383566e+00 -4.003592e-01 -1.189261e-07
      vertex 1.221530e+00 -4.289306e-01 -1.047604e-07
    endloop
  endfacet
  facet normal -8.742275e-08 1.061082e-14 -1.000000e+00
    outer loop
      vertex 1.383566e+00 1.626018e-02 -1.189261e-07
      vertex 1.489328e+00 -2.743174e-01 -1.281720e-07
      vertex 1.221530e+00 -4.289306e-01 -1.047604e-07
    endloop
  endfacet
  facet normal -8.742277e-08 2.100168e-14 -1.000000e+00
    outer loop
      vertex 1.079038e+00 -3.743638e-02 -9.230336e-08
      vertex 1.383566e+00 1.626018e-02 -1.189261e-07
      vertex 1.221530e+00 -4.289306e-01 -1.047604e-07
    endloop
  endfacet
  facet normal -8.742298e-08 -3.721273e-13 -1.000000e+00
    outer loop
      vertex 1.221530e+00 -4.289306e-01 -1.047604e-07
      vertex 1.143031e+00 -4.003593e-01 -9.789782e-08
      vertex 1.079038e+00 -3.466627e-01 -9.230337e-08
    endloop
  endfacet
  facet normal -8.742277e-08 2.297808e-14 -1.000000e+00
    outer loop
      vertex 1.079038e+00 -3.743638e-02 -9.230336e-08
      vertex 1.221530e+00 -4.289306e-01 -1.047604e-07
      vertex 1.079038e+00 -3.466627e-01 -9.230337e-08
    endloop
  endfacet
  facet normal -8.742267e-08 2.233001e-14 -1.000000e+00
    outer loop
      vertex 1.022763e+00 -1.920495e-01 -8.738368e-08
      vertex 1.079038e+00 -3.743638e-02 -9.230336e-08
      vertex 1.079038e+00 -3.466627e-01 -9.230337e-08
    endloop
  endfacet
  facet normal -8.742278e-08 -1.453614e-14 -1.000000e+00
    outer loop
      vertex 1.037269e+00 -2.743176e-01 -8.865184e-08
      vertex 1.022763e+00 -1.920495e-01 -8.738368e-08
      vertex 1.079038e+00 -3.466627e-01 -9.230337e-08
    endloop
  endfacet
endsolid Object01
